<svg width="315" height="107" viewBox="0 0 315 107" fill="none" xmlns="http://www.w3.org/2000/svg">
    <path d="M8.864 8.568C5.248 8.6 2.336 11.512 2.336 15.128V30.968H6.144V21.688H8.896C10.4 21.688 11.648 22.904 11.648 24.44C11.648 28.056 14.592 30.968 18.208 30.968H24.704V27.16H18.208C16.672 27.16 15.456 25.944 15.456 24.44C15.456 23.48 15.232 22.552 14.848 21.688H24.704V8.568H8.864ZM6.08 15.128C6.08 13.624 7.328 12.376 8.832 12.376H20.864V17.88H6.08V15.128ZM35.7032 8.632C32.0872 8.632 29.1752 11.544 29.1752 15.16V31.032H44.9832C48.5993 31.032 51.5433 28.088 51.5433 24.472V8.632H35.7032ZM32.9192 15.16C32.9192 13.656 34.1352 12.44 35.6712 12.44H44.9513C46.4552 12.44 47.6712 13.656 47.6712 15.16V24.44C47.6712 25.976 46.4552 27.192 44.9513 27.192H35.6712C34.1352 27.192 32.9192 25.976 32.9192 24.44V15.16ZM72.9082 8.632V27.224H65.5162C64.0122 27.224 62.7642 25.976 62.7642 24.472V15.224C62.7642 11.608 59.8522 8.664 56.2362 8.664H54.3482V12.472H56.2362C57.7402 12.472 58.9562 13.72 58.9562 15.224V24.44C58.9882 28.056 61.9002 31 65.5162 31H76.7162V8.632H72.9082ZM87.974 8.632C84.358 8.632 81.446 11.576 81.446 15.16V31.032H103.814V27.224H87.974C87.238 27.192 86.534 26.904 86.022 26.392C85.51 25.88 85.222 25.176 85.254 24.44V21.72H103.814V17.912H85.254V15.16C85.254 13.656 86.47 12.44 87.974 12.44H103.814V8.632H87.974ZM114.562 8.568C110.946 8.6 108.034 11.512 108.034 15.128V30.968H111.842V21.688H114.594C116.098 21.688 117.346 22.904 117.346 24.44C117.346 28.056 120.29 30.968 123.906 30.968H130.402V27.16H123.906C122.37 27.16 121.154 25.944 121.154 24.44C121.154 23.48 120.93 22.552 120.546 21.688H130.402V8.568H114.562ZM111.778 15.128C111.778 13.624 113.026 12.376 114.53 12.376H126.562V17.88H111.778V15.128ZM153.52 8.568C149.904 8.6 146.992 11.512 146.992 15.128V30.968H150.8V21.688H153.552C155.056 21.688 156.304 22.904 156.304 24.44C156.304 28.056 159.248 30.968 162.864 30.968H169.36V27.16H162.864C161.328 27.16 160.112 25.944 160.112 24.44C160.112 23.48 159.888 22.552 159.504 21.688H169.36V8.568H153.52ZM150.736 15.128C150.736 13.624 151.984 12.376 153.488 12.376H165.52V17.88H150.736V15.128ZM180.359 8.632C176.743 8.632 173.831 11.576 173.831 15.16V31.032H177.639V21.72H192.391V31.032H196.199V8.632H180.359ZM180.359 12.44H189.639C191.175 12.44 192.391 13.656 192.391 15.16V17.912H177.639V15.16C177.639 13.656 178.855 12.44 180.359 12.44ZM207.51 8.632C203.894 8.632 200.982 11.576 200.982 15.16V31.032H223.35V27.224H207.51C206.774 27.192 206.07 26.904 205.558 26.392C205.046 25.88 204.758 25.176 204.79 24.44V15.16C204.79 13.656 206.006 12.44 207.51 12.44H223.35V8.632H207.51ZM225.733 8.632V12.44H235.013V27.224H225.733V31.032H248.101V27.224H238.821V15.16C238.821 13.656 240.037 12.44 241.541 12.44H248.101V8.632H225.733ZM270.317 8.568V27.16H267.597C266.061 27.16 264.845 25.944 264.845 24.44V15.128C264.845 11.512 261.901 8.6 258.285 8.568H251.757V30.968H255.565V12.376H258.285C259.821 12.376 261.037 13.624 261.037 15.128V24.44C261.037 28.056 263.981 31 267.597 31H274.125V8.568H270.317ZM285.401 8.632C281.785 8.632 278.873 11.544 278.873 15.16V31.032H301.241V17.912H288.089V21.72H297.433V27.224H285.369C283.865 27.192 282.649 25.944 282.681 24.44V15.16C282.681 13.656 283.897 12.44 285.401 12.44H301.241V8.632H285.401Z" fill="white"/>
    <rect y="47" width="263" height="60" rx="16" fill="#860404"/>
    <rect x="279.715" y="107" width="10.715" height="60" rx="5.35748" transform="rotate(-180 279.715 107)" fill="#860404"/>
    <rect opacity="0.75" x="297.023" y="107" width="10.715" height="60" rx="5.35748" transform="rotate(-180 297.023 107)" fill="#860404"/>
    <rect opacity="0.5" x="314.332" y="107" width="10.715" height="60" rx="5.35748" transform="rotate(-180 314.332 107)" fill="#860404"/>
    <path d="M27.296 60.448C21.872 60.448 17.504 64.864 17.504 70.24V94.048H23.216V80.08H45.344V94.048H51.056V60.448H27.296ZM27.296 66.16H41.216C43.52 66.16 45.344 67.984 45.344 70.24V74.368H23.216V70.24C23.216 67.984 25.04 66.16 27.296 66.16ZM67.6579 60.352C62.2339 60.4 57.8659 64.768 57.8659 70.192V80.032H81.5779C83.8819 80.032 85.7059 81.856 85.7059 84.16V88.24H57.8659V93.952H91.4179V84.16C91.4179 78.736 87.0019 74.368 81.5779 74.368H63.5779V70.192C63.5779 67.936 65.4019 66.112 67.6579 66.064H91.4179V60.352H67.6579ZM107.137 60.352C101.713 60.4 97.345 64.768 97.345 70.192V80.032H121.057C123.361 80.032 125.185 81.856 125.185 84.16V88.24H97.345V93.952H130.897V84.16C130.897 78.736 126.481 74.368 121.057 74.368H103.057V70.192C103.057 67.936 104.881 66.112 107.137 66.064H130.897V60.352H107.137ZM147 60.448C141.576 60.448 137.208 64.864 137.208 70.24V94.048H170.76V88.336H147C145.896 88.288 144.84 87.856 144.072 87.088C143.304 86.32 142.872 85.264 142.92 84.16V80.08H170.76V74.368H142.92V70.24C142.92 67.984 144.744 66.16 147 66.16H170.76V60.448H147ZM174.611 60.448V66.16H188.531V94.048H194.243V70.24C194.243 67.984 196.067 66.16 198.323 66.16H208.163V60.448H174.611ZM221.637 60.352C216.213 60.4 211.845 64.768 211.845 70.192V80.032H235.557C237.861 80.032 239.685 81.856 239.685 84.16V88.24H211.845V93.952H245.397V84.16C245.397 78.736 240.981 74.368 235.557 74.368H217.557V70.192C217.557 67.936 219.381 66.112 221.637 66.064H245.397V60.352H221.637Z" fill="white"/>
    </svg>
    