<svg width="315" height="107" viewBox="0 0 315 107" fill="none" xmlns="http://www.w3.org/2000/svg">
    <path d="M8.832 8.632C5.248 8.632 2.336 11.576 2.336 15.16V31.032H24.704V24.44C24.704 22.712 24 21.016 22.752 19.8C24 18.584 24.704 16.92 24.704 15.16V8.632H8.832ZM18.144 17.912H6.144V15.16C6.144 13.656 7.36 12.44 8.864 12.44H20.896V15.192C20.896 15.896 20.608 16.6 20.096 17.112C19.552 17.624 18.88 17.912 18.144 17.912ZM6.144 21.72H18.144C19.648 21.72 20.864 22.936 20.896 24.44V27.192H8.832C7.328 27.192 6.144 25.944 6.144 24.44V21.72ZM35.7657 8.632C32.1497 8.632 29.2377 11.576 29.2377 15.16V31.032H33.0457V21.72H47.7978V31.032H51.6058V8.632H35.7657ZM35.7657 12.44H45.0457C46.5818 12.44 47.7978 13.656 47.7978 15.16V17.912H33.0457V15.16C33.0457 13.656 34.2617 12.44 35.7657 12.44ZM54.6607 8.632V12.44H63.9407V31.032H67.7487V15.16C67.7487 13.656 68.9647 12.44 70.4687 12.44H77.0287V8.632H54.6607ZM78.1243 8.632V12.44H87.4043V31.032H91.2123V15.16C91.2123 13.656 92.4283 12.44 93.9323 12.44H100.492V8.632H78.1243ZM110.068 27.224C108.564 27.224 107.348 25.976 107.348 24.472V8.632H103.54V31.032H125.908V27.224H110.068ZM135.245 8.632C131.629 8.632 128.717 11.576 128.717 15.16V31.032H151.085V27.224H135.245C134.509 27.192 133.805 26.904 133.293 26.392C132.781 25.88 132.493 25.176 132.525 24.44V21.72H151.085V17.912H132.525V15.16C132.525 13.656 133.741 12.44 135.245 12.44H151.085V8.632H135.245ZM173.921 8.632C170.305 8.632 167.393 11.576 167.393 15.16V31.032H171.201V21.72H185.953V31.032H189.761V8.632H173.921ZM173.921 12.44H183.201C184.737 12.44 185.953 13.656 185.953 15.16V17.912H171.201V15.16C171.201 13.656 172.417 12.44 173.921 12.44ZM201.01 8.568C197.394 8.6 194.482 11.512 194.482 15.128V30.968H198.29V21.688H201.042C202.546 21.688 203.794 22.904 203.794 24.44C203.794 28.056 206.738 30.968 210.354 30.968H216.85V27.16H210.354C208.818 27.16 207.602 25.944 207.602 24.44C207.602 23.48 207.378 22.552 206.994 21.688H216.85V8.568H201.01ZM198.226 15.128C198.226 13.624 199.474 12.376 200.978 12.376H213.01V17.88H198.226V15.128ZM227.88 8.632C224.264 8.632 221.352 11.576 221.352 15.16V31.032H243.72V27.224H227.88C227.144 27.192 226.44 26.904 225.928 26.392C225.416 25.88 225.128 25.176 225.16 24.44V21.72H243.72V17.912H225.16V15.16C225.16 13.656 226.376 12.44 227.88 12.44H243.72V8.632H227.88ZM266.692 8.568V27.16H263.972C262.436 27.16 261.22 25.944 261.22 24.44V15.128C261.22 11.512 258.276 8.6 254.66 8.568H248.132V30.968H251.94V12.376H254.66C256.196 12.376 257.412 13.624 257.412 15.128V24.44C257.412 28.056 260.356 31 263.972 31H270.5V8.568H266.692ZM281.776 8.632C278.16 8.632 275.248 11.576 275.248 15.16V31.032H279.056V21.72H293.808V31.032H297.616V8.632H281.776ZM281.776 12.44H291.056C292.592 12.44 293.808 13.656 293.808 15.16V17.912H279.056V15.16C279.056 13.656 280.272 12.44 281.776 12.44Z" fill="white"/>
    <rect y="47" width="263" height="60" rx="16" fill="#303A40"/>
    <rect x="279.715" y="107" width="10.715" height="60" rx="5.35748" transform="rotate(-180 279.715 107)" fill="#303A40"/>
    <rect opacity="0.75" x="297.023" y="107" width="10.715" height="60" rx="5.35748" transform="rotate(-180 297.023 107)" fill="#303A40"/>
    <rect opacity="0.5" x="314.332" y="107" width="10.715" height="60" rx="5.35748" transform="rotate(-180 314.332 107)" fill="#303A40"/>
    <path d="M27.296 60.448C21.872 60.448 17.504 64.864 17.504 70.24V94.048H23.216V80.08H45.344V94.048H51.056V60.448H27.296ZM27.296 66.16H41.216C43.52 66.16 45.344 67.984 45.344 70.24V74.368H23.216V70.24C23.216 67.984 25.04 66.16 27.296 66.16ZM67.6579 60.352C62.2339 60.4 57.8659 64.768 57.8659 70.192V80.032H81.5779C83.8819 80.032 85.7059 81.856 85.7059 84.16V88.24H57.8659V93.952H91.4179V84.16C91.4179 78.736 87.0019 74.368 81.5779 74.368H63.5779V70.192C63.5779 67.936 65.4019 66.112 67.6579 66.064H91.4179V60.352H67.6579ZM107.137 60.352C101.713 60.4 97.345 64.768 97.345 70.192V80.032H121.057C123.361 80.032 125.185 81.856 125.185 84.16V88.24H97.345V93.952H130.897V84.16C130.897 78.736 126.481 74.368 121.057 74.368H103.057V70.192C103.057 67.936 104.881 66.112 107.137 66.064H130.897V60.352H107.137ZM147 60.448C141.576 60.448 137.208 64.864 137.208 70.24V94.048H170.76V88.336H147C145.896 88.288 144.84 87.856 144.072 87.088C143.304 86.32 142.872 85.264 142.92 84.16V80.08H170.76V74.368H142.92V70.24C142.92 67.984 144.744 66.16 147 66.16H170.76V60.448H147ZM174.611 60.448V66.16H188.531V94.048H194.243V70.24C194.243 67.984 196.067 66.16 198.323 66.16H208.163V60.448H174.611ZM221.637 60.352C216.213 60.4 211.845 64.768 211.845 70.192V80.032H235.557C237.861 80.032 239.685 81.856 239.685 84.16V88.24H211.845V93.952H245.397V84.16C245.397 78.736 240.981 74.368 235.557 74.368H217.557V70.192C217.557 67.936 219.381 66.112 221.637 66.064H245.397V60.352H221.637Z" fill="white"/>
    </svg>
    