<svg width="315" height="107" viewBox="0 0 315 107" fill="none" xmlns="http://www.w3.org/2000/svg">
    <path d="M8.864 8.632C5.248 8.632 2.336 11.544 2.336 15.16V31.032H18.144C21.76 31.032 24.704 28.088 24.704 24.472V8.632H8.864ZM6.08 15.16C6.08 13.656 7.296 12.44 8.832 12.44H18.112C19.616 12.44 20.832 13.656 20.832 15.16V24.44C20.832 25.976 19.616 27.192 18.112 27.192H8.832C7.296 27.192 6.08 25.976 6.08 24.44V15.16ZM35.7345 8.632C32.1185 8.632 29.2065 11.544 29.2065 15.16V31.032H33.0145V21.72H51.5745V8.632H35.7345ZM35.7345 12.44H47.7665V17.912H33.0145V15.16C33.0145 13.656 34.2305 12.44 35.7345 12.44ZM62.0105 8.632C58.3945 8.632 55.4825 11.576 55.4825 15.16V31.032H77.8505V27.224H62.0105C61.2745 27.192 60.5705 26.904 60.0585 26.392C59.5465 25.88 59.2585 25.176 59.2905 24.44V21.72H77.8505V17.912H59.2905V15.16C59.2905 13.656 60.5065 12.44 62.0105 12.44H77.8505V8.632H62.0105ZM100.823 8.568V27.16H98.103C96.567 27.16 95.351 25.944 95.351 24.44V15.128C95.351 11.512 92.407 8.6 88.791 8.568H82.263V30.968H86.071V12.376H88.791C90.327 12.376 91.543 13.624 91.543 15.128V24.44C91.543 28.056 94.487 31 98.103 31H104.631V8.568H100.823ZM140.026 8.568V27.16H134.554V8.568H130.746V27.16H127.994C126.49 27.16 125.274 25.944 125.274 24.44V8.568H121.466V24.44C121.466 28.056 124.378 31 127.994 31H143.834V8.568H140.026ZM155.083 8.632C151.467 8.632 148.555 11.544 148.555 15.16V31.032H164.363C167.979 31.032 170.923 28.088 170.923 24.472V8.632H155.083ZM152.299 15.16C152.299 13.656 153.515 12.44 155.051 12.44H164.331C165.835 12.44 167.051 13.656 167.051 15.16V24.44C167.051 25.976 165.835 27.192 164.331 27.192H155.051C153.515 27.192 152.299 25.976 152.299 24.44V15.16ZM181.984 8.568C178.368 8.6 175.456 11.512 175.456 15.128V30.968H179.264V21.688H182.016C183.52 21.688 184.768 22.904 184.768 24.44C184.768 28.056 187.712 30.968 191.328 30.968H197.824V27.16H191.328C189.792 27.16 188.576 25.944 188.576 24.44C188.576 23.48 188.352 22.552 187.968 21.688H197.824V8.568H181.984ZM179.2 15.128C179.2 13.624 180.448 12.376 181.952 12.376H193.984V17.88H179.2V15.128ZM209.078 27.224C207.574 27.224 206.358 25.976 206.358 24.472V8.632H202.55V31.032H224.918V27.224H209.078ZM243.759 8.536H227.951V30.936H243.759C247.375 30.936 250.319 27.992 250.319 24.376V15.096C250.319 11.48 247.375 8.536 243.759 8.536ZM231.759 12.344H243.759C245.295 12.344 246.511 13.56 246.511 15.096V24.376C246.511 25.88 245.295 27.128 243.759 27.128H234.479C232.975 27.128 231.759 25.88 231.759 24.376V12.344Z" fill="white"/>
    <rect y="47" width="263" height="60" rx="16" fill="#860404"/>
    <rect x="279.715" y="107" width="10.715" height="60" rx="5.35748" transform="rotate(-180 279.715 107)" fill="#860404"/>
    <rect opacity="0.75" x="297.023" y="107" width="10.715" height="60" rx="5.35748" transform="rotate(-180 297.023 107)" fill="#860404"/>
    <rect opacity="0.5" x="314.332" y="107" width="10.715" height="60" rx="5.35748" transform="rotate(-180 314.332 107)" fill="#860404"/>
    <path d="M27.296 60.448C21.872 60.448 17.504 64.864 17.504 70.24V94.048H23.216V80.08H45.344V94.048H51.056V60.448H27.296ZM27.296 66.16H41.216C43.52 66.16 45.344 67.984 45.344 70.24V74.368H23.216V70.24C23.216 67.984 25.04 66.16 27.296 66.16ZM67.6579 60.352C62.2339 60.4 57.8659 64.768 57.8659 70.192V80.032H81.5779C83.8819 80.032 85.7059 81.856 85.7059 84.16V88.24H57.8659V93.952H91.4179V84.16C91.4179 78.736 87.0019 74.368 81.5779 74.368H63.5779V70.192C63.5779 67.936 65.4019 66.112 67.6579 66.064H91.4179V60.352H67.6579ZM107.137 60.352C101.713 60.4 97.345 64.768 97.345 70.192V80.032H121.057C123.361 80.032 125.185 81.856 125.185 84.16V88.24H97.345V93.952H130.897V84.16C130.897 78.736 126.481 74.368 121.057 74.368H103.057V70.192C103.057 67.936 104.881 66.112 107.137 66.064H130.897V60.352H107.137ZM147 60.448C141.576 60.448 137.208 64.864 137.208 70.24V94.048H170.76V88.336H147C145.896 88.288 144.84 87.856 144.072 87.088C143.304 86.32 142.872 85.264 142.92 84.16V80.08H170.76V74.368H142.92V70.24C142.92 67.984 144.744 66.16 147 66.16H170.76V60.448H147ZM174.611 60.448V66.16H188.531V94.048H194.243V70.24C194.243 67.984 196.067 66.16 198.323 66.16H208.163V60.448H174.611ZM221.637 60.352C216.213 60.4 211.845 64.768 211.845 70.192V80.032H235.557C237.861 80.032 239.685 81.856 239.685 84.16V88.24H211.845V93.952H245.397V84.16C245.397 78.736 240.981 74.368 235.557 74.368H217.557V70.192C217.557 67.936 219.381 66.112 221.637 66.064H245.397V60.352H221.637Z" fill="white"/>
    </svg>
    