<svg width="249" height="107" viewBox="0 0 249 107" fill="none" xmlns="http://www.w3.org/2000/svg">
    <path d="M8.864 8.632C5.248 8.632 2.336 11.576 2.336 15.16V31.032H24.704V27.224H8.864C8.128 27.192 7.424 26.904 6.912 26.392C6.4 25.88 6.112 25.176 6.144 24.44V15.16C6.144 13.656 7.36 12.44 8.864 12.44H24.704V8.632H8.864ZM34.7032 8.632C31.0872 8.632 28.1752 11.544 28.1752 15.16V31.032H43.9832C47.5993 31.032 50.5433 28.088 50.5433 24.472V8.632H34.7032ZM31.9192 15.16C31.9192 13.656 33.1352 12.44 34.6712 12.44H43.9513C45.4552 12.44 46.6712 13.656 46.6712 15.16V24.44C46.6712 25.976 45.4552 27.192 43.9513 27.192H34.6712C33.1352 27.192 31.9192 25.976 31.9192 24.44V15.16ZM71.1082 8.568H55.2682V30.968H59.0762V12.376H64.5482V30.968H68.3562V12.376H71.1082C72.6122 12.376 73.8282 13.624 73.8282 15.128V30.968H77.6362V15.128C77.6362 11.512 74.7242 8.6 71.1082 8.568ZM88.6928 8.632C85.0768 8.632 82.1648 11.544 82.1648 15.16V31.032H85.9728V21.72H104.533V8.632H88.6928ZM88.6928 12.44H100.725V17.912H85.9728V15.16C85.9728 13.656 87.1888 12.44 88.6928 12.44ZM114.969 8.632C111.353 8.632 108.441 11.576 108.441 15.16V31.032H112.249V21.72H127.001V31.032H130.809V8.632H114.969ZM114.969 12.44H124.249C125.785 12.44 127.001 13.656 127.001 15.16V17.912H112.249V15.16C112.249 13.656 113.465 12.44 114.969 12.44ZM154.344 8.568V27.16H151.624C150.088 27.16 148.872 25.944 148.872 24.44V15.128C148.872 11.512 145.928 8.6 142.312 8.568H135.784V30.968H139.592V12.376H142.312C143.848 12.376 145.064 13.624 145.064 15.128V24.44C145.064 28.056 148.008 31 151.624 31H158.152V8.568H154.344ZM161.811 8.632V12.44H171.091V27.224H161.811V31.032H184.179V27.224H174.899V15.16C174.899 13.656 176.115 12.44 177.619 12.44H184.179V8.632H161.811ZM194.172 8.632C190.556 8.632 187.644 11.544 187.644 15.16V31.032H203.452C207.068 31.032 210.012 28.088 210.012 24.472V8.632H194.172ZM191.388 15.16C191.388 13.656 192.604 12.44 194.14 12.44H203.42C204.924 12.44 206.14 13.656 206.14 15.16V24.44C206.14 25.976 204.924 27.192 203.42 27.192H194.14C192.604 27.192 191.388 25.976 191.388 24.44V15.16ZM233.297 8.568V27.16H230.577C229.041 27.16 227.825 25.944 227.825 24.44V15.128C227.825 11.512 224.881 8.6 221.265 8.568H214.737V30.968H218.545V12.376H221.265C222.801 12.376 224.017 13.624 224.017 15.128V24.44C224.017 28.056 226.961 31 230.577 31H237.105V8.568H233.297Z" fill="white"/>
    <rect y="47" width="193" height="60" rx="16" fill="#067E7E"/>
    <rect x="213.715" y="107" width="10.715" height="60" rx="5.35748" transform="rotate(-180 213.715 107)" fill="#067E7E"/>
    <rect opacity="0.75" x="231.023" y="107" width="10.715" height="60" rx="5.35748" transform="rotate(-180 231.023 107)" fill="#067E7E"/>
    <rect opacity="0.5" x="248.332" y="107" width="10.715" height="60" rx="5.35748" transform="rotate(-180 248.332 107)" fill="#067E7E"/>
    <path d="M41.552 60.304H17.84V93.904H41.552C46.976 93.904 51.392 89.488 51.392 84.064V70.144C51.392 64.72 46.976 60.304 41.552 60.304ZM23.552 66.016H41.552C43.856 66.016 45.68 67.84 45.68 70.144V84.064C45.68 86.32 43.856 88.192 41.552 88.192H27.632C25.376 88.192 23.552 86.32 23.552 84.064V66.016ZM67.6658 60.448C62.2418 60.448 57.8738 64.816 57.8738 70.24V94.048H81.5858C87.0098 94.048 91.4258 89.632 91.4258 84.208V60.448H67.6658ZM63.4898 70.24C63.4898 67.984 65.3138 66.16 67.6178 66.16H81.5378C83.7938 66.16 85.6178 67.984 85.6178 70.24V84.16C85.6178 86.464 83.7938 88.288 81.5378 88.288H67.6178C65.3138 88.288 63.4898 86.464 63.4898 84.16V70.24ZM108.036 60.448C102.612 60.448 98.2435 64.816 98.2435 70.24V94.048H131.796V74.368H112.068V80.08H126.084V88.336H107.988C105.732 88.288 103.908 86.416 103.956 84.16V70.24C103.956 67.984 105.78 66.16 108.036 66.16H131.796V60.448H108.036ZM148.022 60.352C142.598 60.4 138.23 64.768 138.23 70.192V80.032H161.942C164.246 80.032 166.07 81.856 166.07 84.16V88.24H138.23V93.952H171.782V84.16C171.782 78.736 167.366 74.368 161.942 74.368H143.942V70.192C143.942 67.936 145.766 66.112 148.022 66.064H171.782V60.352H148.022Z" fill="white"/>
    </svg>
    