<svg width="60" height="60" viewBox="0 0 60 60" fill="none" xmlns="http://www.w3.org/2000/svg">
<path d="M21.6331 12.4334C17.0979 12.8318 12.7737 15.3045 9.86743 19.16C7.41821 22.4178 4.71118 31.6053 4.37133 37.8045C4.1604 41.7068 6.18774 44.4373 10.6526 46.242C12.6565 47.0506 15.1409 47.5897 16.8752 47.5779L17.5198 47.5662L18.7502 46.0428C19.4299 45.199 20.051 44.4139 20.1331 44.2967C20.262 44.1092 20.1916 44.0623 19.3713 43.7693C17.262 43.0311 15.176 41.7537 13.7698 40.3592C13.2776 39.867 12.8909 39.4451 12.926 39.4217C12.9495 39.3983 13.4416 39.5858 14.0159 39.8553C16.1956 40.8631 19.6995 42.0936 22.3362 42.7733C28.137 44.2733 33.3401 44.3318 38.3791 42.949C40.8284 42.2811 43.4885 41.1326 45.8557 39.7264C46.4065 39.41 46.8987 39.1404 46.9573 39.1404C47.133 39.1404 45.6213 40.5936 44.7424 41.2498C43.6995 42.035 41.719 43.0662 40.3479 43.5467C39.8088 43.7342 39.3752 43.9217 39.3752 43.9686C39.3752 44.0154 39.9143 44.7186 40.5823 45.5389C41.2385 46.3475 41.8362 47.0975 41.9182 47.2029C42.0354 47.3436 42.2698 47.367 43.2659 47.3084C47.0276 47.0975 51.4221 45.3865 53.4143 43.3592C55.2424 41.5076 55.8987 39.3397 55.5588 36.3279C54.7971 29.7303 52.4651 22.3475 50.1448 19.2186C47.4729 15.5975 43.7112 13.3123 39.2581 12.5975C37.594 12.3397 37.2541 12.3631 36.8674 12.7615L36.551 13.0897L37.1135 13.242C39.094 13.7811 42.8205 15.3865 44.6838 16.5115C45.6448 17.0975 47.344 18.2811 47.2151 18.2811C47.1682 18.2811 46.7229 18.0936 46.219 17.8592C42.4924 16.1483 38.4846 15.0115 34.2776 14.449C32.344 14.2029 27.0237 14.1678 25.1956 14.3904C21.0002 14.9178 17.0159 15.9725 13.7932 17.4139C12.1057 18.1639 12.2112 18.1287 12.4104 17.8826C12.7151 17.5193 15.012 16.0545 16.2776 15.4217C16.9573 15.0701 18.1291 14.5545 18.8674 14.2615C20.1799 13.7342 22.9221 12.8904 23.2971 12.8904C23.4377 12.8904 23.4143 12.8318 23.2034 12.5975C23.051 12.4334 22.8752 12.3162 22.8049 12.3162C22.7346 12.3279 22.2073 12.3748 21.6331 12.4334ZM22.7932 27.9608C24.6331 28.4295 25.8987 29.824 26.2502 31.7225C26.7893 34.7459 23.9651 37.6404 21.0588 37.0311C18.2229 36.4451 16.6291 33.4334 17.6838 30.6795C18.2698 29.1561 20.1096 27.8436 21.7385 27.785C21.9377 27.7733 22.4182 27.8553 22.7932 27.9608ZM39.6799 28.2303C40.7229 28.7108 41.4026 29.3904 41.9299 30.4451C42.3401 31.2889 42.3635 31.3943 42.3635 32.449C42.3518 33.8553 42.0705 34.6522 41.2385 35.5545C40.5354 36.3279 39.8674 36.7381 38.8948 36.9842C35.9299 37.7459 32.9534 34.8397 33.5041 31.7342C33.7502 30.3397 34.512 29.1795 35.637 28.5115C36.9963 27.7029 38.344 27.6092 39.6799 28.2303Z" fill="white"/>
</svg>
