<svg width="60" height="60" viewBox="0 0 60 60" fill="none" xmlns="http://www.w3.org/2000/svg">
<g clip-path="url(#clip0_89_57)">
<path d="M26.9996 44.4374C27.9371 44.4374 28.7809 45.1874 28.7809 46.2186C28.7809 47.1561 28.0309 47.9999 26.9996 47.9999C26.0621 47.9999 25.2184 47.2499 25.2184 46.2186C25.2184 45.1874 26.0621 44.4374 26.9996 44.4374ZM54.5621 33.5624C53.6246 33.5624 52.7809 32.8124 52.7809 31.7811C52.7809 30.8436 53.5309 29.9999 54.5621 29.9999C55.4996 29.9999 56.3434 30.7499 56.3434 31.7811C56.3434 32.7186 55.4996 33.5624 54.5621 33.5624ZM54.5621 26.3436C51.5621 26.3436 49.1246 28.7811 49.1246 31.7811C49.1246 32.3436 49.2184 32.9061 49.4059 33.4686L31.4996 43.0311C30.4684 41.5311 28.7809 40.6874 26.9996 40.6874C24.9371 40.6874 23.0621 41.9061 22.1246 43.6874L5.99964 35.2499C4.31214 34.3124 2.99964 31.5936 3.18714 28.9686C3.28089 27.6561 3.74964 26.6249 4.40589 26.2499C4.87464 25.9686 5.34339 26.0624 5.99964 26.3436L6.09339 26.4374C10.4059 28.6874 24.3746 35.9999 24.9371 36.2811C25.8746 36.6561 26.3434 36.8436 27.9371 36.0936L56.8121 21.0936C57.2809 20.9061 57.7496 20.5311 57.7496 19.8749C57.7496 19.0311 56.9059 18.6561 56.9059 18.6561C55.2184 17.9061 52.6871 16.6874 50.2496 15.5624C44.9996 13.1249 38.9996 10.3124 36.3746 8.9061C34.1246 7.68735 32.2496 8.7186 31.9684 8.9061L31.3121 9.18735C19.4059 15.1874 3.65589 22.9686 2.71839 23.5311C1.12464 24.4686 0.093393 26.4374 -0.000356978 28.8749C-0.187857 32.7186 1.78089 36.7499 4.59339 38.1561L21.6559 46.9686C22.0309 49.5936 24.3746 51.6561 26.9996 51.6561C29.9996 51.6561 32.3434 49.3124 32.4371 46.3124L51.1871 36.1874C52.1246 36.9374 53.3434 37.3124 54.5621 37.3124C57.5621 37.3124 59.9996 34.8749 59.9996 31.8749C59.9996 28.7811 57.5621 26.3436 54.5621 26.3436Z" fill="white"/>
</g>
<defs>
<clipPath id="clip0_89_57">
<rect width="60" height="60" fill="white"/>
</clipPath>
</defs>
</svg>
