<svg width="60" height="60" viewBox="0 0 60 60" fill="none" xmlns="http://www.w3.org/2000/svg">
<path d="M55.8985 5.32056C51.9142 6.7854 2.754 25.6643 2.02743 26.0159C-0.374911 27.1526 -0.656161 28.6526 1.34775 29.6721C1.54696 29.7776 4.86337 30.8323 8.74228 32.0393L15.7852 34.2307L31.7696 24.2229C40.5704 18.7268 47.9415 14.1565 48.1524 14.0862C48.7032 13.8987 49.172 13.9104 49.3829 14.1331C49.5352 14.2854 49.547 14.3557 49.4181 14.5784C49.3477 14.7307 43.5001 20.0393 36.4454 26.3674C29.3907 32.7073 23.5899 37.9338 23.5665 37.9924C23.5431 38.051 23.3087 41.2151 23.0392 45.0237L22.547 51.9377L23.086 51.8674C23.379 51.8323 23.836 51.6799 24.1056 51.5276C24.3868 51.387 26.2149 49.7229 28.1954 47.8362C30.1642 45.9495 31.8517 44.3674 31.9337 44.344C32.0157 44.3088 35.1563 46.5354 38.9181 49.2893C42.6681 52.0432 46.0313 54.4221 46.3946 54.5862C47.3438 55.0315 48.3985 55.0666 49.0899 54.7034C49.711 54.3752 50.3087 53.5549 50.5665 52.6995C50.6602 52.3713 52.8165 42.4456 55.336 30.6448C59.5431 11.0041 59.9298 9.10571 59.9298 8.08618C59.9298 7.12524 59.8946 6.89087 59.6368 6.38696C59.461 6.02368 59.1446 5.6604 58.8399 5.44946C58.1485 4.96899 57.0001 4.9104 55.8985 5.32056Z" fill="white"/>
</svg>
