<svg width="60" height="60" viewBox="0 0 60 60" fill="none" xmlns="http://www.w3.org/2000/svg">
<path d="M37.148 10.7107C36.2222 10.9217 35.6597 11.1209 34.8628 11.5193C32.2495 12.8201 30.3862 15.1287 29.6362 17.9881C29.3784 19.0076 29.2847 20.9412 29.4487 21.9607L29.5542 22.535L28.4526 22.4646C24.562 22.2068 20.273 20.8123 16.6401 18.6092C14.6362 17.4021 13.1714 16.2303 11.2026 14.2732C9.10498 12.1756 9.29248 12.2225 8.7417 13.617C7.82764 15.9959 7.74561 18.1521 8.51905 20.3201C9.1167 22.0076 10.3823 23.8475 11.6597 24.8904L12.3276 25.4295H11.9526C11.273 25.4295 9.78467 25.0662 8.88233 24.6678L7.96827 24.2811V24.867C7.96827 26.9295 9.05811 29.4256 10.7105 31.1482C11.9292 32.4256 13.1245 33.1873 14.8237 33.7498L15.7612 34.0662L14.7534 34.2186C14.1675 34.3006 13.2417 34.3475 12.5503 34.3123C11.1558 34.242 11.1909 34.1365 12.0347 35.7537C12.9487 37.4998 14.4487 39.0115 16.1714 39.8904C17.4253 40.535 18.0815 40.7459 19.3823 40.9334L20.4253 41.0857L19.9683 41.449C19.7222 41.6482 19.1597 42.0232 18.7261 42.2928C15.3276 44.3553 11.5425 45.3514 7.56983 45.2107C5.83545 45.1404 5.83545 45.1521 7.55811 46.0779C13.4526 49.242 19.8159 50.2615 26.4253 49.0896C36.4214 47.3201 44.3667 40.1951 47.6362 30.1053C48.5151 27.3865 48.9839 24.5154 48.9839 21.8553V20.2967L49.6636 19.7928C50.9175 18.8436 52.8745 16.7576 53.73 15.4334L53.9409 15.117L53.3901 15.3514C52.1948 15.8553 48.7261 16.7693 48.5737 16.617C48.5503 16.5936 48.9019 16.2889 49.3589 15.9373C50.6597 14.9412 51.9019 13.242 52.4409 11.7068L52.5933 11.2732L51.1753 11.9529C49.8394 12.5975 48.2339 13.1717 46.9683 13.4881L46.4058 13.617L45.7964 13.0662C44.5659 11.9529 43.0776 11.1678 41.4487 10.7811C40.3355 10.5115 38.2026 10.4764 37.148 10.7107Z" fill="white"/>
</svg>
